<svg width="30" height="29" viewBox="0 0 30 29" fill="none" xmlns="http://www.w3.org/2000/svg">
<path d="M3 28.7552H4.5V9.61982H3C2.20435 9.61982 1.44129 9.92998 0.87868 10.4821C0.31607 11.0342 0 11.783 0 12.5637V25.8113C0 26.5921 0.31607 27.3409 0.87868 27.893C1.44129 28.4451 2.20435 28.7552 3 28.7552ZM27 9.61982H16.5L18.183 4.66227C18.3332 4.21982 18.3741 3.7487 18.3024 3.28769C18.2306 2.82669 18.0483 2.389 17.7705 2.01068C17.4926 1.63236 17.1271 1.32423 16.7041 1.11167C16.2811 0.899115 15.8127 0.788207 15.3375 0.788086H15L7.5 8.79258V28.7552H24L29.868 16.1023L30 15.5076V12.5637C30 11.783 29.6839 11.0342 29.1213 10.4821C28.5587 9.92998 27.7956 9.61982 27 9.61982Z" fill="#0066FF"/>
</svg>
