<svg width="27" height="27" viewBox="0 0 27 27" fill="none" xmlns="http://www.w3.org/2000/svg">
<path d="M5.55933 26.5907L6.8473 26.392L4.12183 9.96137L2.83385 10.1601C2.15067 10.2655 1.53965 10.6329 1.1352 11.1814C0.730749 11.73 0.566007 12.4148 0.677213 13.0853L2.56408 24.4603C2.67528 25.1307 3.05333 25.7318 3.61505 26.1313C4.17676 26.5308 4.87614 26.6961 5.55933 26.5907ZM23.4414 6.98089L14.4256 8.37178L15.1646 3.89206C15.2305 3.49226 15.1986 3.0823 15.0713 2.69597C14.9441 2.30963 14.7252 1.95796 14.4327 1.66992C14.1402 1.38189 13.7825 1.16573 13.3891 1.03924C12.9956 0.912761 12.5776 0.879578 12.1695 0.942426L11.8797 0.987133L6.57995 8.85367L9.42324 25.9946L23.5909 23.8089L26.8273 12.1672L26.856 11.6391L26.4367 9.11128C26.3254 8.44087 25.9474 7.83978 25.3857 7.44026C24.824 7.04074 24.1246 6.87549 23.4414 6.98089Z" fill="#00E65C"/>
</svg>
