<?xml version="1.0" standalone="no"?>
<!DOCTYPE svg PUBLIC "-//W3C//DTD SVG 20010904//EN"
 "http://www.w3.org/TR/2001/REC-SVG-20010904/DTD/svg10.dtd">
<svg version="1.0" xmlns="http://www.w3.org/2000/svg"
 width="239.000000pt" height="239.000000pt" viewBox="0 0 239.000000 239.000000"
 preserveAspectRatio="xMidYMid meet">
<metadata>
Created by potrace 1.10, written by Peter Selinger 2001-2011
</metadata>
<g transform="translate(0.000000,239.000000) scale(0.100000,-0.100000)"
fill="#bababa" stroke="none">
<path d="M1140 2094 l-1 -296 23 8 c23 7 23 7 4 -15 -13 -14 -22 -18 -26 -10
-11 16 -20 -28 -20 -97 0 -33 -6 -68 -12 -77 -16 -20 -161 -87 -191 -87 -49 0
-47 27 -45 -690 l3 -674 40 -8 c62 -11 213 -65 231 -82 21 -22 53 -20 78 3 28
26 178 91 210 91 18 0 27 6 31 23 3 12 4 319 3 682 l-3 660 -45 6 c-25 3 -82
20 -127 36 -46 17 -83 26 -83 20 0 -5 -7 -4 -15 3 -8 7 -15 17 -15 22 0 6 6 6
14 -1 17 -14 20 -10 36 56 10 44 9 61 -4 107 -9 30 -23 61 -31 70 -17 17 -20
30 -5 21 6 -4 10 18 10 59 0 42 -4 66 -12 69 -10 4 -10 6 0 6 8 1 12 21 12 66
0 45 -4 65 -12 65 -10 0 -10 2 0 9 9 6 14 43 16 129 l3 122 -33 0 -32 0 -2
-296z m40 -368 c0 -25 5 -57 11 -73 5 -15 7 -24 3 -20 -4 4 -13 2 -21 -4 -11
-9 -13 2 -13 65 0 44 4 76 10 76 6 0 10 -20 10 -44z m-13 -133 c-4 -3 -10 -3
-14 0 -3 4 0 7 7 7 7 0 10 -3 7 -7z m-7 -44 c0 -14 -17 -10 -23 5 -4 10 -1 13
9 9 7 -3 14 -9 14 -14z m-115 -163 l60 -23 0 -519 0 -519 -69 -33 c-37 -18
-70 -32 -72 -30 -4 5 -5 164 -5 701 1 351 4 447 14 446 6 0 39 -10 72 -23z
m335 -547 l0 -571 -27 5 c-16 3 -49 15 -75 26 l-48 20 0 516 0 516 63 29 c34
16 68 29 75 30 9 0 12 -121 12 -571z m-240 -619 c0 -22 -16 -26 -40 -10 -13 9
-13 11 0 20 24 16 40 12 40 -10z m97 -7 c-4 -3 -7 0 -7 7 0 7 3 10 7 7 3 -4 3
-10 0 -14z"/>
</g>
</svg>
