<?xml version="1.0" standalone="no"?>
<!DOCTYPE svg PUBLIC "-//W3C//DTD SVG 20010904//EN"
 "http://www.w3.org/TR/2001/REC-SVG-20010904/DTD/svg10.dtd">
<svg version="1.0" xmlns="http://www.w3.org/2000/svg"
 width="182.000000pt" height="183.000000pt" viewBox="0 0 182.000000 183.000000"
 preserveAspectRatio="xMidYMid meet">
<metadata>
Created by potrace 1.10, written by Peter Selinger 2001-2011
</metadata>
<g transform="translate(0.000000,183.000000) scale(0.100000,-0.100000)"
fill="#bababa" stroke="none">
<path d="M793 1819 c22 -9 27 -16 25 -37 -4 -33 27 -43 35 -12 3 11 11 20 17
20 7 0 10 -8 7 -20 -6 -22 18 -53 37 -47 6 2 12 10 12 18 1 8 2 17 3 21 1 7
98 -25 321 -105 355 -127 554 -197 562 -197 5 0 8 12 6 28 -2 19 -9 28 -25 30
-13 2 -23 8 -23 13 0 5 -12 9 -26 9 -14 0 -22 4 -19 10 3 6 -4 9 -17 9 -13 -1
-39 6 -59 14 -20 9 -51 19 -69 22 -18 3 -47 12 -65 19 -19 8 -36 12 -39 8 -3
-3 -6 1 -6 8 0 7 -2 11 -6 8 -3 -3 -42 10 -87 30 -45 19 -93 34 -106 33 -13 0
-29 5 -35 12 -10 12 -69 35 -106 41 -8 1 -24 7 -35 13 -59 32 -155 56 -240 59
-72 3 -85 2 -62 -7z m222 -49 c3 -6 -1 -7 -9 -4 -18 7 -21 14 -7 14 6 0 13 -4
16 -10z m42 -17 c-4 -3 -10 -3 -14 0 -3 4 0 7 7 7 7 0 10 -3 7 -7z m70 -30
c-4 -3 -7 0 -7 7 0 7 3 10 7 7 3 -4 3 -10 0 -14z m100 -29 c-3 -3 -12 -4 -19
-1 -8 3 -5 6 6 6 11 1 17 -2 13 -5z m60 -21 c-4 -3 -10 -3 -14 0 -3 4 0 7 7 7
7 0 10 -3 7 -7z m110 -40 c-4 -3 -10 -3 -14 0 -3 4 0 7 7 7 7 0 10 -3 7 -7z
m60 -19 c-3 -3 -12 -4 -19 -1 -8 3 -5 6 6 6 11 1 17 -2 13 -5z m190 -71 c-4
-3 -10 -3 -14 0 -3 4 0 7 7 7 7 0 10 -3 7 -7z m78 -31 c-3 -3 -11 0 -18 7 -9
10 -8 11 6 5 10 -3 15 -9 12 -12z"/>
<path d="M1266 1804 c-4 -14 -4 -35 0 -46 5 -16 11 -19 32 -13 15 4 37 7 50 7
21 0 21 1 6 13 -9 6 -14 17 -10 23 4 7 2 12 -3 12 -6 0 -11 -9 -11 -21 0 -14
-5 -19 -17 -17 -13 3 -17 12 -15 36 3 40 -23 45 -32 6z"/>
<path d="M1610 1813 c0 -31 -116 -77 -185 -75 l-40 2 43 -16 c43 -15 44 -15
118 20 40 20 78 36 82 36 10 0 102 -143 102 -157 0 -17 52 -63 71 -63 11 0 19
5 19 10 0 6 -6 10 -14 10 -8 0 -36 33 -62 73 -26 39 -63 96 -81 125 -36 54
-53 65 -53 35z"/>
<path d="M1693 1824 c7 -7 106 -43 120 -44 4 0 7 11 7 25 0 24 -2 25 -67 25
-36 0 -63 -3 -60 -6z"/>
<path d="M808 1678 l-3 -52 -69 -34 c-38 -18 -89 -37 -114 -42 -24 -4 -48 -14
-53 -21 -14 -23 -11 -1333 3 -1347 7 -7 24 -12 39 -12 30 0 196 -57 219 -75
28 -22 59 -24 84 -4 35 28 167 89 191 89 55 0 52 -30 59 692 7 656 6 667 -13
677 -11 6 -33 11 -48 11 -16 0 -67 14 -113 30 -58 22 -85 28 -90 20 -5 -8 -9
-7 -13 4 -4 9 -1 15 5 13 13 -3 32 49 24 68 -9 24 -36 18 -36 -7 0 -13 -4 -30
-9 -37 -10 -15 -15 -4 -23 54 -2 11 -11 21 -20 23 -14 3 -17 -6 -20 -50z m43
-105 c13 -16 12 -17 -3 -4 -10 7 -18 15 -18 17 0 8 8 3 21 -13z m219 -708 c0
-316 -1 -575 -3 -575 -2 0 -35 11 -73 24 l-69 24 -3 299 c-2 164 0 398 3 521
l7 223 62 29 c33 15 64 29 69 29 4 1 7 -258 7 -574z m-329 544 l59 -22 0 -519
0 -519 -65 -30 c-35 -16 -69 -29 -75 -29 -7 0 -10 189 -10 570 0 647 -10 586
91 549z m86 -1173 c-4 -9 -13 -13 -22 -10 -18 7 -20 31 -2 37 17 6 31 -9 24
-27z m110 7 c-4 -3 -10 -3 -14 0 -3 4 0 7 7 7 7 0 10 -3 7 -7z"/>
</g>
</svg>
