<svg width="30" height="29" viewBox="0 0 30 29" fill="none" xmlns="http://www.w3.org/2000/svg">
<path d="M27 0.262222H25.5L25.5 19.3976H27C27.7956 19.3976 28.5587 19.0875 29.1213 18.5354C29.6839 17.9833 30 17.2345 30 16.4537L30 3.20613C30 2.42536 29.6839 1.67656 29.1213 1.12447C28.5587 0.572384 27.7956 0.262222 27 0.262222ZM3 19.3976L13.5 19.3976L11.817 24.3552C11.6668 24.7976 11.6259 25.2688 11.6976 25.7298C11.7694 26.1908 11.9517 26.6285 12.2295 27.0068C12.5074 27.3851 12.8729 27.6932 13.2959 27.9058C13.7189 28.1183 14.1873 28.2292 14.6625 28.2294L15 28.2294L22.5 20.2249L22.5 0.262222L6 0.262222L0.132 12.9151L0 13.5098L0 16.4537C0 17.2345 0.316071 17.9833 0.878681 18.5354C1.44129 19.0875 2.20435 19.3976 3 19.3976Z" fill="#FF002E"/>
</svg>
